<svg xmlns="http://www.w3.org/2000/svg" viewBox="0 0 512 512" width="512" height="512">
  <!-- Orange background rounded square -->
  <rect width="512" height="512" rx="100" fill="#FF6B35"/>

  <!-- QR Code (top left) -->
  <!-- Outer top-left square -->
  <rect x="80" y="80" width="110" height="110" rx="8" fill="white"/>
  <rect x="95" y="95" width="80" height="80" rx="4" fill="#FF6B35"/>
  <rect x="112" y="112" width="46" height="46" rx="2" fill="white"/>

  <!-- Outer top-right square -->
  <rect x="210" y="80" width="50" height="50" rx="6" fill="white"/>
  <rect x="222" y="92" width="26" height="26" rx="2" fill="#FF6B35"/>
  <rect x="229" y="99" width="12" height="12" rx="1" fill="white"/>

  <!-- QR dots bottom-left area -->
  <rect x="80" y="210" width="50" height="50" rx="6" fill="white"/>
  <rect x="92" y="222" width="26" height="26" rx="2" fill="#FF6B35"/>
  <rect x="99" y="229" width="12" height="12" rx="1" fill="white"/>

  <!-- QR small dots -->
  <rect x="210" y="148" width="22" height="22" rx="3" fill="white"/>
  <rect x="240" y="148" width="22" height="22" rx="3" fill="white"/>
  <rect x="148" y="210" width="22" height="22" rx="3" fill="white"/>
  <rect x="148" y="240" width="22" height="22" rx="3" fill="white"/>
  <rect x="210" y="210" width="22" height="22" rx="3" fill="white"/>
  <rect x="240" y="240" width="22" height="22" rx="3" fill="white"/>
  <rect x="210" y="240" width="22" height="22" rx="3" fill="white"/>

  <!-- Fork (top right) -->
  <!-- Fork handle -->
  <rect x="340" y="80" width="22" height="140" rx="11" fill="white"/>
  <!-- Fork tines -->
  <rect x="326" y="80" width="10" height="60" rx="5" fill="white"/>
  <rect x="356" y="80" width="10" height="60" rx="5" fill="white"/>
  <!-- Fork connector -->
  <rect x="326" y="132" width="40" height="14" rx="4" fill="white"/>

  <!-- Knife (top right, next to fork) -->
  <rect x="395" y="80" width="22" height="160" rx="11" fill="white"/>
  <!-- Knife blade tip -->
  <path d="M395 80 Q417 80 417 130 L395 130 Z" fill="white"/>

  <!-- Menu lines (bottom left) -->
  <rect x="80" y="340" width="160" height="28" rx="14" fill="white"/>
  <rect x="80" y="390" width="130" height="28" rx="14" fill="white"/>

  <!-- Checkmark (bottom right) -->
  <path d="M290 370 L340 430 L440 300" stroke="white" stroke-width="42" stroke-linecap="round" stroke-linejoin="round" fill="none"/>
</svg>
